<mxfile host="app.diagrams.net" modified="2024-04-26T14:25:10.902Z" agent="Mozilla/5.0 (Windows NT 10.0; Win64; x64) AppleWebKit/537.36 (KHTML, like Gecko) Chrome/124.0.0.0 Safari/537.36 Edg/124.0.0.0" etag="bmyMslQfktEH3mGT7vxz" version="24.3.0" type="github">
  <diagram id="R2lEEEUBdFMjLlhIrx00" name="Page-1">
    <mxGraphModel dx="2392" dy="903" grid="0" gridSize="10" guides="0" tooltips="1" connect="0" arrows="0" fold="1" page="1" pageScale="1" pageWidth="850" pageHeight="1100" math="0" shadow="0" extFonts="Permanent Marker^https://fonts.googleapis.com/css?family=Permanent+Marker">
      <root>
        <mxCell id="0" />
        <mxCell id="1" parent="0" />
        <mxCell id="53vGb1DOH9rvjaksHZF3-1" value="MONITOR" style="whiteSpace=wrap;html=1;align=center;" parent="1" vertex="1">
          <mxGeometry x="148" y="417" width="100" height="40" as="geometry" />
        </mxCell>
        <mxCell id="53vGb1DOH9rvjaksHZF3-2" value="destreza" style="ellipse;whiteSpace=wrap;html=1;align=center;" parent="1" vertex="1">
          <mxGeometry x="30" y="35" width="100" height="40" as="geometry" />
        </mxCell>
        <mxCell id="53vGb1DOH9rvjaksHZF3-3" value="experiencia" style="ellipse;whiteSpace=wrap;html=1;align=center;" parent="1" vertex="1">
          <mxGeometry x="140" y="30" width="100" height="40" as="geometry" />
        </mxCell>
        <mxCell id="53vGb1DOH9rvjaksHZF3-4" value="nombre" style="ellipse;whiteSpace=wrap;html=1;align=center;" parent="1" vertex="1">
          <mxGeometry x="250" y="30" width="100" height="40" as="geometry" />
        </mxCell>
        <mxCell id="53vGb1DOH9rvjaksHZF3-5" value="apellidos" style="ellipse;whiteSpace=wrap;html=1;align=center;" parent="1" vertex="1">
          <mxGeometry x="355" y="59" width="100" height="40" as="geometry" />
        </mxCell>
        <mxCell id="53vGb1DOH9rvjaksHZF3-6" value="dirección" style="ellipse;whiteSpace=wrap;html=1;align=center;" parent="1" vertex="1">
          <mxGeometry x="-80" y="65" width="100" height="40" as="geometry" />
        </mxCell>
        <mxCell id="53vGb1DOH9rvjaksHZF3-7" value="teléfono" style="ellipse;whiteSpace=wrap;html=1;align=center;" parent="1" vertex="1">
          <mxGeometry x="-131" y="140" width="100" height="40" as="geometry" />
        </mxCell>
        <mxCell id="53vGb1DOH9rvjaksHZF3-8" value="fecha_nacimiento" style="ellipse;whiteSpace=wrap;html=1;align=center;" parent="1" vertex="1">
          <mxGeometry x="414" y="123" width="100" height="40" as="geometry" />
        </mxCell>
        <mxCell id="53vGb1DOH9rvjaksHZF3-9" value="DNI_monitor" style="ellipse;whiteSpace=wrap;html=1;align=center;fontStyle=4" parent="1" vertex="1">
          <mxGeometry x="-153" y="215" width="100" height="40" as="geometry" />
        </mxCell>
        <mxCell id="53vGb1DOH9rvjaksHZF3-22" value="" style="endArrow=none;html=1;rounded=0;" parent="1" edge="1">
          <mxGeometry relative="1" as="geometry">
            <mxPoint x="193" y="417" as="sourcePoint" />
            <mxPoint x="190" y="70" as="targetPoint" />
          </mxGeometry>
        </mxCell>
        <mxCell id="53vGb1DOH9rvjaksHZF3-24" value="" style="endArrow=none;html=1;rounded=0;" parent="1" edge="1">
          <mxGeometry relative="1" as="geometry">
            <mxPoint x="193" y="417" as="sourcePoint" />
            <mxPoint x="298" y="72" as="targetPoint" />
          </mxGeometry>
        </mxCell>
        <mxCell id="53vGb1DOH9rvjaksHZF3-26" value="" style="endArrow=none;html=1;rounded=0;exitX=0.453;exitY=-0.036;exitDx=0;exitDy=0;exitPerimeter=0;" parent="1" source="53vGb1DOH9rvjaksHZF3-1" edge="1">
          <mxGeometry relative="1" as="geometry">
            <mxPoint x="260" y="437" as="sourcePoint" />
            <mxPoint x="365" y="92" as="targetPoint" />
          </mxGeometry>
        </mxCell>
        <mxCell id="53vGb1DOH9rvjaksHZF3-28" value="" style="endArrow=none;html=1;rounded=0;" parent="1" edge="1">
          <mxGeometry relative="1" as="geometry">
            <mxPoint x="192" y="416" as="sourcePoint" />
            <mxPoint x="416" y="148" as="targetPoint" />
          </mxGeometry>
        </mxCell>
        <mxCell id="53vGb1DOH9rvjaksHZF3-32" value="" style="endArrow=none;html=1;rounded=0;" parent="1" edge="1">
          <mxGeometry relative="1" as="geometry">
            <mxPoint x="193" y="417" as="sourcePoint" />
            <mxPoint x="86" y="75" as="targetPoint" />
          </mxGeometry>
        </mxCell>
        <mxCell id="53vGb1DOH9rvjaksHZF3-34" value="" style="endArrow=none;html=1;rounded=0;" parent="1" edge="1">
          <mxGeometry relative="1" as="geometry">
            <mxPoint x="193" y="417" as="sourcePoint" />
            <mxPoint x="-5" y="103" as="targetPoint" />
          </mxGeometry>
        </mxCell>
        <mxCell id="53vGb1DOH9rvjaksHZF3-36" value="" style="endArrow=none;html=1;rounded=0;" parent="1" edge="1">
          <mxGeometry relative="1" as="geometry">
            <mxPoint x="193" y="416" as="sourcePoint" />
            <mxPoint x="-35" y="168" as="targetPoint" />
          </mxGeometry>
        </mxCell>
        <mxCell id="53vGb1DOH9rvjaksHZF3-38" value="" style="endArrow=none;html=1;rounded=0;exitX=0.437;exitY=-0.021;exitDx=0;exitDy=0;exitPerimeter=0;" parent="1" source="53vGb1DOH9rvjaksHZF3-1" edge="1">
          <mxGeometry relative="1" as="geometry">
            <mxPoint x="191" y="416" as="sourcePoint" />
            <mxPoint x="-54" y="240" as="targetPoint" />
          </mxGeometry>
        </mxCell>
        <mxCell id="53vGb1DOH9rvjaksHZF3-40" value="AREA" style="whiteSpace=wrap;html=1;align=center;" parent="1" vertex="1">
          <mxGeometry x="1011" y="418" width="100" height="40" as="geometry" />
        </mxCell>
        <mxCell id="53vGb1DOH9rvjaksHZF3-41" value="&lt;u&gt;Nombre_area&lt;/u&gt;" style="ellipse;whiteSpace=wrap;html=1;align=center;" parent="1" vertex="1">
          <mxGeometry x="910" y="314" width="100" height="40" as="geometry" />
        </mxCell>
        <mxCell id="53vGb1DOH9rvjaksHZF3-42" value="descripción" style="ellipse;whiteSpace=wrap;html=1;align=center;" parent="1" vertex="1">
          <mxGeometry x="1091" y="312" width="100" height="40" as="geometry" />
        </mxCell>
        <mxCell id="53vGb1DOH9rvjaksHZF3-43" value="" style="endArrow=none;html=1;rounded=0;exitX=0.448;exitY=0.025;exitDx=0;exitDy=0;exitPerimeter=0;" parent="1" source="53vGb1DOH9rvjaksHZF3-40" edge="1">
          <mxGeometry relative="1" as="geometry">
            <mxPoint x="780" y="612" as="sourcePoint" />
            <mxPoint x="1004" y="344" as="targetPoint" />
          </mxGeometry>
        </mxCell>
        <mxCell id="53vGb1DOH9rvjaksHZF3-44" value="" style="endArrow=none;html=1;rounded=0;exitX=0.432;exitY=-0.017;exitDx=0;exitDy=0;exitPerimeter=0;" parent="1" source="53vGb1DOH9rvjaksHZF3-40" edge="1">
          <mxGeometry relative="1" as="geometry">
            <mxPoint x="1164" y="424" as="sourcePoint" />
            <mxPoint x="1112" y="349" as="targetPoint" />
          </mxGeometry>
        </mxCell>
        <mxCell id="53vGb1DOH9rvjaksHZF3-47" value="&lt;font style=&quot;font-size: 9px;&quot;&gt;TRABAJA EN&lt;/font&gt;" style="shape=rhombus;perimeter=rhombusPerimeter;whiteSpace=wrap;html=1;align=center;" parent="1" vertex="1">
          <mxGeometry x="770" y="405" width="120" height="60" as="geometry" />
        </mxCell>
        <mxCell id="53vGb1DOH9rvjaksHZF3-49" value="&lt;font style=&quot;font-size: 8px;&quot;&gt;ALMACENADO EN&lt;/font&gt;" style="shape=rhombus;double=1;perimeter=rhombusPerimeter;whiteSpace=wrap;html=1;align=center;" parent="1" vertex="1">
          <mxGeometry x="350" y="406" width="120" height="60" as="geometry" />
        </mxCell>
        <mxCell id="53vGb1DOH9rvjaksHZF3-50" value="&lt;font style=&quot;font-size: 10px;&quot;&gt;MONITOR-AREA&lt;/font&gt;" style="shape=ext;margin=3;double=1;whiteSpace=wrap;html=1;align=center;" parent="1" vertex="1">
          <mxGeometry x="570" y="417" width="100" height="40" as="geometry" />
        </mxCell>
        <mxCell id="53vGb1DOH9rvjaksHZF3-53" value="" style="endArrow=none;html=1;rounded=0;" parent="1" edge="1">
          <mxGeometry relative="1" as="geometry">
            <mxPoint x="470" y="436" as="sourcePoint" />
            <mxPoint x="570" y="436" as="targetPoint" />
          </mxGeometry>
        </mxCell>
        <mxCell id="53vGb1DOH9rvjaksHZF3-54" value="N" style="resizable=0;html=1;whiteSpace=wrap;align=right;verticalAlign=bottom;" parent="53vGb1DOH9rvjaksHZF3-53" connectable="0" vertex="1">
          <mxGeometry x="1" relative="1" as="geometry">
            <mxPoint x="-90" y="-1" as="offset" />
          </mxGeometry>
        </mxCell>
        <mxCell id="53vGb1DOH9rvjaksHZF3-55" value="" style="endArrow=none;html=1;rounded=0;" parent="1" edge="1">
          <mxGeometry relative="1" as="geometry">
            <mxPoint x="670" y="435" as="sourcePoint" />
            <mxPoint x="770" y="435" as="targetPoint" />
          </mxGeometry>
        </mxCell>
        <mxCell id="53vGb1DOH9rvjaksHZF3-56" value="N" style="resizable=0;html=1;whiteSpace=wrap;align=right;verticalAlign=bottom;" parent="53vGb1DOH9rvjaksHZF3-55" connectable="0" vertex="1">
          <mxGeometry x="1" relative="1" as="geometry" />
        </mxCell>
        <mxCell id="53vGb1DOH9rvjaksHZF3-57" value="" style="endArrow=none;html=1;rounded=0;entryX=0;entryY=0.425;entryDx=0;entryDy=0;entryPerimeter=0;" parent="1" target="53vGb1DOH9rvjaksHZF3-40" edge="1">
          <mxGeometry relative="1" as="geometry">
            <mxPoint x="889" y="435" as="sourcePoint" />
            <mxPoint x="1010" y="434" as="targetPoint" />
          </mxGeometry>
        </mxCell>
        <mxCell id="53vGb1DOH9rvjaksHZF3-58" value="1" style="resizable=0;html=1;whiteSpace=wrap;align=right;verticalAlign=bottom;" parent="53vGb1DOH9rvjaksHZF3-57" connectable="0" vertex="1">
          <mxGeometry x="1" relative="1" as="geometry">
            <mxPoint x="-112" y="-2" as="offset" />
          </mxGeometry>
        </mxCell>
        <mxCell id="53vGb1DOH9rvjaksHZF3-59" value="&lt;font style=&quot;font-size: 11px;&quot;&gt;SUPERVISOR&lt;/font&gt;" style="shape=rhombus;perimeter=rhombusPerimeter;whiteSpace=wrap;html=1;align=center;" parent="1" vertex="1">
          <mxGeometry x="408" y="215" width="120" height="60" as="geometry" />
        </mxCell>
        <mxCell id="53vGb1DOH9rvjaksHZF3-66" value="" style="shape=link;html=1;rounded=0;" parent="1" edge="1">
          <mxGeometry relative="1" as="geometry">
            <mxPoint x="248" y="436" as="sourcePoint" />
            <mxPoint x="354" y="436" as="targetPoint" />
          </mxGeometry>
        </mxCell>
        <mxCell id="53vGb1DOH9rvjaksHZF3-67" value="1" style="resizable=0;html=1;whiteSpace=wrap;align=right;verticalAlign=bottom;" parent="53vGb1DOH9rvjaksHZF3-66" connectable="0" vertex="1">
          <mxGeometry x="1" relative="1" as="geometry" />
        </mxCell>
        <mxCell id="53vGb1DOH9rvjaksHZF3-68" value="" style="shape=link;html=1;rounded=0;entryX=0.022;entryY=0.513;entryDx=0;entryDy=0;entryPerimeter=0;exitX=0.985;exitY=0.037;exitDx=0;exitDy=0;exitPerimeter=0;" parent="1" source="53vGb1DOH9rvjaksHZF3-1" target="53vGb1DOH9rvjaksHZF3-59" edge="1">
          <mxGeometry relative="1" as="geometry">
            <mxPoint x="192" y="416" as="sourcePoint" />
            <mxPoint x="382" y="400" as="targetPoint" />
          </mxGeometry>
        </mxCell>
        <mxCell id="53vGb1DOH9rvjaksHZF3-69" value="1" style="resizable=0;html=1;whiteSpace=wrap;align=right;verticalAlign=bottom;" parent="53vGb1DOH9rvjaksHZF3-68" connectable="0" vertex="1">
          <mxGeometry x="1" relative="1" as="geometry" />
        </mxCell>
        <mxCell id="53vGb1DOH9rvjaksHZF3-70" value="" style="endArrow=none;html=1;rounded=0;entryX=0.501;entryY=1;entryDx=0;entryDy=0;entryPerimeter=0;" parent="1" target="53vGb1DOH9rvjaksHZF3-59" edge="1">
          <mxGeometry relative="1" as="geometry">
            <mxPoint x="248" y="418" as="sourcePoint" />
            <mxPoint x="405" y="336" as="targetPoint" />
          </mxGeometry>
        </mxCell>
        <mxCell id="53vGb1DOH9rvjaksHZF3-71" value="N" style="resizable=0;html=1;whiteSpace=wrap;align=right;verticalAlign=bottom;" parent="53vGb1DOH9rvjaksHZF3-70" connectable="0" vertex="1">
          <mxGeometry x="1" relative="1" as="geometry" />
        </mxCell>
        <mxCell id="53vGb1DOH9rvjaksHZF3-72" value="CAMPAMENTO" style="whiteSpace=wrap;html=1;align=center;" parent="1" vertex="1">
          <mxGeometry x="607" y="718" width="100" height="40" as="geometry" />
        </mxCell>
        <mxCell id="53vGb1DOH9rvjaksHZF3-73" value="&lt;u&gt;Nombre_campamento&lt;/u&gt;" style="ellipse;whiteSpace=wrap;html=1;align=center;" parent="1" vertex="1">
          <mxGeometry x="463" y="599" width="143" height="49" as="geometry" />
        </mxCell>
        <mxCell id="53vGb1DOH9rvjaksHZF3-74" value="fecha_inicio" style="ellipse;whiteSpace=wrap;html=1;align=center;" parent="1" vertex="1">
          <mxGeometry x="611" y="588" width="100" height="40" as="geometry" />
        </mxCell>
        <mxCell id="53vGb1DOH9rvjaksHZF3-75" value="fecha_fin" style="ellipse;whiteSpace=wrap;html=1;align=center;" parent="1" vertex="1">
          <mxGeometry x="707" y="615" width="100" height="40" as="geometry" />
        </mxCell>
        <mxCell id="53vGb1DOH9rvjaksHZF3-76" value="etiqueta" style="ellipse;whiteSpace=wrap;html=1;align=center;" parent="1" vertex="1">
          <mxGeometry x="779" y="660" width="100" height="40" as="geometry" />
        </mxCell>
        <mxCell id="53vGb1DOH9rvjaksHZF3-77" value="" style="endArrow=none;html=1;rounded=0;exitX=0.46;exitY=0.007;exitDx=0;exitDy=0;exitPerimeter=0;entryX=0.91;entryY=0.869;entryDx=0;entryDy=0;entryPerimeter=0;" parent="1" source="53vGb1DOH9rvjaksHZF3-72" target="53vGb1DOH9rvjaksHZF3-73" edge="1">
          <mxGeometry relative="1" as="geometry">
            <mxPoint x="640" y="694" as="sourcePoint" />
            <mxPoint x="546" y="650" as="targetPoint" />
          </mxGeometry>
        </mxCell>
        <mxCell id="53vGb1DOH9rvjaksHZF3-78" value="" style="endArrow=none;html=1;rounded=0;entryX=0.547;entryY=0.994;entryDx=0;entryDy=0;entryPerimeter=0;" parent="1" target="53vGb1DOH9rvjaksHZF3-74" edge="1">
          <mxGeometry relative="1" as="geometry">
            <mxPoint x="652" y="718" as="sourcePoint" />
            <mxPoint x="597" y="635" as="targetPoint" />
          </mxGeometry>
        </mxCell>
        <mxCell id="53vGb1DOH9rvjaksHZF3-79" value="" style="endArrow=none;html=1;rounded=0;entryX=0.138;entryY=0.881;entryDx=0;entryDy=0;entryPerimeter=0;" parent="1" target="53vGb1DOH9rvjaksHZF3-75" edge="1">
          <mxGeometry relative="1" as="geometry">
            <mxPoint x="651" y="718" as="sourcePoint" />
            <mxPoint x="686" y="634" as="targetPoint" />
          </mxGeometry>
        </mxCell>
        <mxCell id="53vGb1DOH9rvjaksHZF3-80" value="" style="endArrow=none;html=1;rounded=0;exitX=0.444;exitY=0.007;exitDx=0;exitDy=0;exitPerimeter=0;entryX=0.01;entryY=0.575;entryDx=0;entryDy=0;entryPerimeter=0;" parent="1" source="53vGb1DOH9rvjaksHZF3-72" target="53vGb1DOH9rvjaksHZF3-76" edge="1">
          <mxGeometry relative="1" as="geometry">
            <mxPoint x="823" y="734" as="sourcePoint" />
            <mxPoint x="768" y="651" as="targetPoint" />
          </mxGeometry>
        </mxCell>
        <mxCell id="53vGb1DOH9rvjaksHZF3-90" value="ACTIVIDAD" style="whiteSpace=wrap;html=1;align=center;" parent="1" vertex="1">
          <mxGeometry x="1345" y="708" width="100" height="40" as="geometry" />
        </mxCell>
        <mxCell id="53vGb1DOH9rvjaksHZF3-91" value="&lt;u&gt;Título_actividad&lt;/u&gt;" style="ellipse;whiteSpace=wrap;html=1;align=center;" parent="1" vertex="1">
          <mxGeometry x="1186" y="615" width="100" height="40" as="geometry" />
        </mxCell>
        <mxCell id="53vGb1DOH9rvjaksHZF3-92" value="duración" style="ellipse;whiteSpace=wrap;html=1;align=center;" parent="1" vertex="1">
          <mxGeometry x="1285" y="585" width="100" height="40" as="geometry" />
        </mxCell>
        <mxCell id="53vGb1DOH9rvjaksHZF3-93" value="resumen" style="ellipse;whiteSpace=wrap;html=1;align=center;" parent="1" vertex="1">
          <mxGeometry x="1397" y="586" width="100" height="40" as="geometry" />
        </mxCell>
        <mxCell id="53vGb1DOH9rvjaksHZF3-94" value="tipo" style="ellipse;whiteSpace=wrap;html=1;align=center;" parent="1" vertex="1">
          <mxGeometry x="1499" y="611" width="100" height="40" as="geometry" />
        </mxCell>
        <mxCell id="53vGb1DOH9rvjaksHZF3-95" value="" style="endArrow=none;html=1;rounded=0;exitX=0.46;exitY=0.007;exitDx=0;exitDy=0;exitPerimeter=0;" parent="1" source="53vGb1DOH9rvjaksHZF3-90" edge="1">
          <mxGeometry relative="1" as="geometry">
            <mxPoint x="1378" y="684" as="sourcePoint" />
            <mxPoint x="1284" y="640" as="targetPoint" />
          </mxGeometry>
        </mxCell>
        <mxCell id="53vGb1DOH9rvjaksHZF3-96" value="" style="endArrow=none;html=1;rounded=0;" parent="1" edge="1">
          <mxGeometry relative="1" as="geometry">
            <mxPoint x="1390" y="708" as="sourcePoint" />
            <mxPoint x="1335" y="625" as="targetPoint" />
          </mxGeometry>
        </mxCell>
        <mxCell id="53vGb1DOH9rvjaksHZF3-97" value="" style="endArrow=none;html=1;rounded=0;" parent="1" edge="1">
          <mxGeometry relative="1" as="geometry">
            <mxPoint x="1389" y="708" as="sourcePoint" />
            <mxPoint x="1424" y="624" as="targetPoint" />
          </mxGeometry>
        </mxCell>
        <mxCell id="53vGb1DOH9rvjaksHZF3-98" value="" style="endArrow=none;html=1;rounded=0;exitX=0.444;exitY=0.007;exitDx=0;exitDy=0;exitPerimeter=0;" parent="1" source="53vGb1DOH9rvjaksHZF3-90" edge="1">
          <mxGeometry relative="1" as="geometry">
            <mxPoint x="1561" y="724" as="sourcePoint" />
            <mxPoint x="1506" y="641" as="targetPoint" />
          </mxGeometry>
        </mxCell>
        <mxCell id="53vGb1DOH9rvjaksHZF3-99" value="&lt;font style=&quot;font-size: 10px;&quot;&gt;CAMPAMENTO-ACTIVIDAD&lt;/font&gt;" style="shape=rhombus;perimeter=rhombusPerimeter;whiteSpace=wrap;html=1;align=center;" parent="1" vertex="1">
          <mxGeometry x="955" y="703" width="120" height="60" as="geometry" />
        </mxCell>
        <mxCell id="53vGb1DOH9rvjaksHZF3-100" value="" style="shape=link;html=1;rounded=0;entryX=0;entryY=0.625;entryDx=0;entryDy=0;entryPerimeter=0;" parent="1" target="53vGb1DOH9rvjaksHZF3-90" edge="1">
          <mxGeometry relative="1" as="geometry">
            <mxPoint x="1071" y="733" as="sourcePoint" />
            <mxPoint x="1231" y="733" as="targetPoint" />
          </mxGeometry>
        </mxCell>
        <mxCell id="53vGb1DOH9rvjaksHZF3-101" value="N" style="resizable=0;html=1;whiteSpace=wrap;align=right;verticalAlign=bottom;" parent="53vGb1DOH9rvjaksHZF3-100" connectable="0" vertex="1">
          <mxGeometry x="1" relative="1" as="geometry">
            <mxPoint x="-253" y="-2" as="offset" />
          </mxGeometry>
        </mxCell>
        <mxCell id="53vGb1DOH9rvjaksHZF3-102" value="" style="shape=link;html=1;rounded=0;exitX=0.995;exitY=0.377;exitDx=0;exitDy=0;exitPerimeter=0;" parent="1" source="53vGb1DOH9rvjaksHZF3-72" edge="1">
          <mxGeometry relative="1" as="geometry">
            <mxPoint x="708.0000000000002" y="733.4000000000001" as="sourcePoint" />
            <mxPoint x="959.2" y="733" as="targetPoint" />
          </mxGeometry>
        </mxCell>
        <mxCell id="53vGb1DOH9rvjaksHZF3-103" value="N" style="resizable=0;html=1;whiteSpace=wrap;align=right;verticalAlign=bottom;" parent="53vGb1DOH9rvjaksHZF3-102" connectable="0" vertex="1">
          <mxGeometry x="1" relative="1" as="geometry" />
        </mxCell>
        <mxCell id="53vGb1DOH9rvjaksHZF3-104" value="CATEGORÍA" style="whiteSpace=wrap;html=1;align=center;" parent="1" vertex="1">
          <mxGeometry x="151" y="1173" width="100" height="40" as="geometry" />
        </mxCell>
        <mxCell id="53vGb1DOH9rvjaksHZF3-105" value="&lt;u&gt;Denominación_categoría&lt;/u&gt;" style="ellipse;whiteSpace=wrap;html=1;align=center;" parent="1" vertex="1">
          <mxGeometry x="70" y="1242" width="159" height="71" as="geometry" />
        </mxCell>
        <mxCell id="53vGb1DOH9rvjaksHZF3-108" value="rango_edad" style="ellipse;whiteSpace=wrap;html=1;align=center;" parent="1" vertex="1">
          <mxGeometry x="232" y="1241" width="100" height="40" as="geometry" />
        </mxCell>
        <mxCell id="53vGb1DOH9rvjaksHZF3-109" value="" style="endArrow=none;html=1;rounded=0;exitX=0.488;exitY=1.067;exitDx=0;exitDy=0;exitPerimeter=0;entryX=0.74;entryY=0.047;entryDx=0;entryDy=0;entryPerimeter=0;" parent="1" source="53vGb1DOH9rvjaksHZF3-104" target="53vGb1DOH9rvjaksHZF3-105" edge="1">
          <mxGeometry relative="1" as="geometry">
            <mxPoint x="155" y="1135" as="sourcePoint" />
            <mxPoint x="61" y="1091" as="targetPoint" />
          </mxGeometry>
        </mxCell>
        <mxCell id="53vGb1DOH9rvjaksHZF3-112" value="" style="endArrow=none;html=1;rounded=0;exitX=0.488;exitY=1.067;exitDx=0;exitDy=0;exitPerimeter=0;entryX=0;entryY=0.35;entryDx=0;entryDy=0;entryPerimeter=0;" parent="1" source="53vGb1DOH9rvjaksHZF3-104" target="53vGb1DOH9rvjaksHZF3-108" edge="1">
          <mxGeometry relative="1" as="geometry">
            <mxPoint x="338" y="1175" as="sourcePoint" />
            <mxPoint x="283" y="1092" as="targetPoint" />
          </mxGeometry>
        </mxCell>
        <mxCell id="53vGb1DOH9rvjaksHZF3-114" value="&lt;font style=&quot;font-size: 8px;&quot;&gt;MONITORIZA&lt;/font&gt;" style="shape=ext;margin=3;double=1;whiteSpace=wrap;html=1;align=center;" parent="1" vertex="1">
          <mxGeometry x="149" y="626" width="100" height="40" as="geometry" />
        </mxCell>
        <mxCell id="53vGb1DOH9rvjaksHZF3-115" value="&lt;font size=&quot;1&quot;&gt;MONITOREA&lt;/font&gt;" style="shape=rhombus;perimeter=rhombusPerimeter;whiteSpace=wrap;html=1;align=center;" parent="1" vertex="1">
          <mxGeometry x="138" y="701" width="120" height="60" as="geometry" />
        </mxCell>
        <mxCell id="53vGb1DOH9rvjaksHZF3-116" value="" style="shape=link;html=1;rounded=0;exitX=0.476;exitY=0.989;exitDx=0;exitDy=0;exitPerimeter=0;entryX=0.5;entryY=-0.002;entryDx=0;entryDy=0;entryPerimeter=0;" parent="1" edge="1">
          <mxGeometry relative="1" as="geometry">
            <mxPoint x="197.00000000000014" y="456.55999999999995" as="sourcePoint" />
            <mxPoint x="198" y="538.8800000000001" as="targetPoint" />
          </mxGeometry>
        </mxCell>
        <mxCell id="53vGb1DOH9rvjaksHZF3-117" value="1" style="resizable=0;html=1;whiteSpace=wrap;align=right;verticalAlign=bottom;" parent="53vGb1DOH9rvjaksHZF3-116" connectable="0" vertex="1">
          <mxGeometry x="1" relative="1" as="geometry">
            <mxPoint x="-5" y="2" as="offset" />
          </mxGeometry>
        </mxCell>
        <mxCell id="53vGb1DOH9rvjaksHZF3-121" value="" style="shape=link;html=1;rounded=0;exitX=0.508;exitY=1;exitDx=0;exitDy=0;exitPerimeter=0;entryX=0.48;entryY=0;entryDx=0;entryDy=0;entryPerimeter=0;" parent="1" source="53vGb1DOH9rvjaksHZF3-115" target="53vGb1DOH9rvjaksHZF3-104" edge="1">
          <mxGeometry relative="1" as="geometry">
            <mxPoint x="198.00000000000014" y="1055" as="sourcePoint" />
            <mxPoint x="199" y="1137.44" as="targetPoint" />
          </mxGeometry>
        </mxCell>
        <mxCell id="53vGb1DOH9rvjaksHZF3-122" value="1" style="resizable=0;html=1;whiteSpace=wrap;align=right;verticalAlign=bottom;" parent="53vGb1DOH9rvjaksHZF3-121" connectable="0" vertex="1">
          <mxGeometry x="1" relative="1" as="geometry">
            <mxPoint x="-6" y="-391" as="offset" />
          </mxGeometry>
        </mxCell>
        <mxCell id="53vGb1DOH9rvjaksHZF3-123" value="fecha-fin" style="ellipse;whiteSpace=wrap;html=1;align=center;" parent="1" vertex="1">
          <mxGeometry x="-10" y="585" width="100" height="40" as="geometry" />
        </mxCell>
        <mxCell id="53vGb1DOH9rvjaksHZF3-124" value="fecha_inicio" style="ellipse;whiteSpace=wrap;html=1;align=center;" parent="1" vertex="1">
          <mxGeometry x="-67" y="630" width="100" height="40" as="geometry" />
        </mxCell>
        <mxCell id="53vGb1DOH9rvjaksHZF3-126" value="cargo" style="ellipse;whiteSpace=wrap;html=1;align=center;" parent="1" vertex="1">
          <mxGeometry x="-12" y="681" width="100" height="40" as="geometry" />
        </mxCell>
        <mxCell id="53vGb1DOH9rvjaksHZF3-130" value="N" style="resizable=0;html=1;whiteSpace=wrap;align=right;verticalAlign=bottom;" parent="1" connectable="0" vertex="1">
          <mxGeometry x="197" y="615" as="geometry" />
        </mxCell>
        <mxCell id="53vGb1DOH9rvjaksHZF3-131" value="N" style="resizable=0;html=1;whiteSpace=wrap;align=right;verticalAlign=bottom;" parent="1" connectable="0" vertex="1">
          <mxGeometry x="195" y="702" as="geometry" />
        </mxCell>
        <mxCell id="53vGb1DOH9rvjaksHZF3-137" value="&lt;font style=&quot;font-size: 9px;&quot;&gt;REALIZADA POR&lt;/font&gt;" style="shape=rhombus;perimeter=rhombusPerimeter;whiteSpace=wrap;html=1;align=center;" parent="1" vertex="1">
          <mxGeometry x="1161" y="1154" width="120" height="60" as="geometry" />
        </mxCell>
        <mxCell id="53vGb1DOH9rvjaksHZF3-138" value="&lt;font style=&quot;font-size: 8px;&quot;&gt;PARTICIPA EN&lt;/font&gt;" style="shape=rhombus;double=1;perimeter=rhombusPerimeter;whiteSpace=wrap;html=1;align=center;" parent="1" vertex="1">
          <mxGeometry x="741" y="1155" width="120" height="60" as="geometry" />
        </mxCell>
        <mxCell id="53vGb1DOH9rvjaksHZF3-139" value="&lt;font style=&quot;font-size: 7px;&quot;&gt;CATEGORÍA-ACTIVIDAD&lt;/font&gt;" style="shape=ext;margin=3;double=1;whiteSpace=wrap;html=1;align=center;" parent="1" vertex="1">
          <mxGeometry x="961" y="1166" width="100" height="40" as="geometry" />
        </mxCell>
        <mxCell id="53vGb1DOH9rvjaksHZF3-140" value="" style="endArrow=none;html=1;rounded=0;" parent="1" edge="1">
          <mxGeometry relative="1" as="geometry">
            <mxPoint x="861" y="1185" as="sourcePoint" />
            <mxPoint x="961" y="1185" as="targetPoint" />
          </mxGeometry>
        </mxCell>
        <mxCell id="53vGb1DOH9rvjaksHZF3-141" value="N" style="resizable=0;html=1;whiteSpace=wrap;align=right;verticalAlign=bottom;" parent="53vGb1DOH9rvjaksHZF3-140" connectable="0" vertex="1">
          <mxGeometry x="1" relative="1" as="geometry">
            <mxPoint x="-90" y="-1" as="offset" />
          </mxGeometry>
        </mxCell>
        <mxCell id="53vGb1DOH9rvjaksHZF3-142" value="" style="endArrow=none;html=1;rounded=0;" parent="1" edge="1">
          <mxGeometry relative="1" as="geometry">
            <mxPoint x="1061" y="1184" as="sourcePoint" />
            <mxPoint x="1161" y="1184" as="targetPoint" />
          </mxGeometry>
        </mxCell>
        <mxCell id="53vGb1DOH9rvjaksHZF3-143" value="N" style="resizable=0;html=1;whiteSpace=wrap;align=right;verticalAlign=bottom;" parent="53vGb1DOH9rvjaksHZF3-142" connectable="0" vertex="1">
          <mxGeometry x="1" relative="1" as="geometry" />
        </mxCell>
        <mxCell id="53vGb1DOH9rvjaksHZF3-144" value="1" style="resizable=0;html=1;whiteSpace=wrap;align=right;verticalAlign=bottom;" parent="1" connectable="0" vertex="1">
          <mxGeometry x="1290" y="1182" as="geometry" />
        </mxCell>
        <mxCell id="53vGb1DOH9rvjaksHZF3-145" value="1" style="resizable=0;html=1;whiteSpace=wrap;align=right;verticalAlign=bottom;" parent="1" connectable="0" vertex="1">
          <mxGeometry x="745" y="1185" as="geometry" />
        </mxCell>
        <mxCell id="53vGb1DOH9rvjaksHZF3-146" value="" style="shape=link;html=1;rounded=0;exitX=1.002;exitY=0.315;exitDx=0;exitDy=0;exitPerimeter=0;" parent="1" source="53vGb1DOH9rvjaksHZF3-104" edge="1">
          <mxGeometry relative="1" as="geometry">
            <mxPoint x="639" y="1185" as="sourcePoint" />
            <mxPoint x="745" y="1185" as="targetPoint" />
          </mxGeometry>
        </mxCell>
        <mxCell id="53vGb1DOH9rvjaksHZF3-147" value="1" style="resizable=0;html=1;whiteSpace=wrap;align=right;verticalAlign=bottom;" parent="53vGb1DOH9rvjaksHZF3-146" connectable="0" vertex="1">
          <mxGeometry x="1" relative="1" as="geometry" />
        </mxCell>
        <mxCell id="53vGb1DOH9rvjaksHZF3-148" value="" style="shape=link;html=1;rounded=0;entryX=0.484;entryY=1.053;entryDx=0;entryDy=0;entryPerimeter=0;exitX=0.969;exitY=0.5;exitDx=0;exitDy=0;exitPerimeter=0;" parent="1" source="53vGb1DOH9rvjaksHZF3-137" target="53vGb1DOH9rvjaksHZF3-90" edge="1">
          <mxGeometry relative="1" as="geometry">
            <mxPoint x="1396" y="1305" as="sourcePoint" />
            <mxPoint x="1513" y="1064" as="targetPoint" />
            <Array as="points">
              <mxPoint x="1396" y="1186" />
              <mxPoint x="1396" y="1064" />
            </Array>
          </mxGeometry>
        </mxCell>
        <mxCell id="53vGb1DOH9rvjaksHZF3-154" value="valoración" style="ellipse;whiteSpace=wrap;html=1;align=center;" parent="1" vertex="1">
          <mxGeometry x="870" y="1237" width="100" height="40" as="geometry" />
        </mxCell>
        <mxCell id="53vGb1DOH9rvjaksHZF3-155" value="comentarios" style="ellipse;whiteSpace=wrap;html=1;align=center;" parent="1" vertex="1">
          <mxGeometry x="1061" y="1237" width="100" height="40" as="geometry" />
        </mxCell>
        <mxCell id="53vGb1DOH9rvjaksHZF3-157" value="" style="endArrow=none;html=1;rounded=0;exitX=0.489;exitY=1.068;exitDx=0;exitDy=0;exitPerimeter=0;" parent="1" source="53vGb1DOH9rvjaksHZF3-139" target="53vGb1DOH9rvjaksHZF3-155" edge="1">
          <mxGeometry relative="1" as="geometry">
            <mxPoint x="1044" y="1171" as="sourcePoint" />
            <mxPoint x="1079" y="1087" as="targetPoint" />
          </mxGeometry>
        </mxCell>
        <mxCell id="53vGb1DOH9rvjaksHZF3-158" value="" style="endArrow=none;html=1;rounded=0;exitX=0.489;exitY=1.068;exitDx=0;exitDy=0;exitPerimeter=0;entryX=0.409;entryY=0;entryDx=0;entryDy=0;entryPerimeter=0;" parent="1" source="53vGb1DOH9rvjaksHZF3-139" edge="1">
          <mxGeometry relative="1" as="geometry">
            <mxPoint x="963" y="1149" as="sourcePoint" />
            <mxPoint x="1009.9000000000001" y="1274" as="targetPoint" />
          </mxGeometry>
        </mxCell>
        <mxCell id="53vGb1DOH9rvjaksHZF3-159" value="" style="endArrow=none;html=1;rounded=0;exitX=0.479;exitY=1.042;exitDx=0;exitDy=0;exitPerimeter=0;entryX=0.831;entryY=0.083;entryDx=0;entryDy=0;entryPerimeter=0;" parent="1" source="53vGb1DOH9rvjaksHZF3-139" target="53vGb1DOH9rvjaksHZF3-154" edge="1">
          <mxGeometry relative="1" as="geometry">
            <mxPoint x="947" y="1194" as="sourcePoint" />
            <mxPoint x="960" y="1098" as="targetPoint" />
          </mxGeometry>
        </mxCell>
        <mxCell id="53vGb1DOH9rvjaksHZF3-166" value="EXCURSIÓN" style="whiteSpace=wrap;html=1;align=center;" parent="1" vertex="1">
          <mxGeometry x="965" y="877" width="100" height="40" as="geometry" />
        </mxCell>
        <mxCell id="53vGb1DOH9rvjaksHZF3-167" value="&lt;font style=&quot;font-size: 10px;&quot;&gt;SE REALIZAN&lt;/font&gt;" style="shape=rhombus;perimeter=rhombusPerimeter;whiteSpace=wrap;html=1;align=center;" parent="1" vertex="1">
          <mxGeometry x="1181" y="831" width="120" height="60" as="geometry" />
        </mxCell>
        <mxCell id="53vGb1DOH9rvjaksHZF3-168" value="" style="endArrow=none;html=1;rounded=0;" parent="1" edge="1">
          <mxGeometry relative="1" as="geometry">
            <mxPoint x="1300" y="861" as="sourcePoint" />
            <mxPoint x="1345" y="747" as="targetPoint" />
            <Array as="points">
              <mxPoint x="1345" y="861" />
            </Array>
          </mxGeometry>
        </mxCell>
        <mxCell id="53vGb1DOH9rvjaksHZF3-169" value="" style="endArrow=none;html=1;rounded=0;exitX=1.01;exitY=0.439;exitDx=0;exitDy=0;exitPerimeter=0;" parent="1" source="53vGb1DOH9rvjaksHZF3-166" edge="1">
          <mxGeometry relative="1" as="geometry">
            <mxPoint x="1181" y="1115" as="sourcePoint" />
            <mxPoint x="1181" y="861" as="targetPoint" />
          </mxGeometry>
        </mxCell>
        <mxCell id="53vGb1DOH9rvjaksHZF3-170" value="N" style="resizable=0;html=1;whiteSpace=wrap;align=right;verticalAlign=bottom;" parent="1" connectable="0" vertex="1">
          <mxGeometry x="1311.999393939394" y="860" as="geometry" />
        </mxCell>
        <mxCell id="53vGb1DOH9rvjaksHZF3-172" value="&lt;font style=&quot;font-size: 10px;&quot;&gt;SE REALIZAN&lt;/font&gt;" style="shape=rhombus;perimeter=rhombusPerimeter;whiteSpace=wrap;html=1;align=center;" parent="1" vertex="1">
          <mxGeometry x="730" y="835" width="120" height="60" as="geometry" />
        </mxCell>
        <mxCell id="53vGb1DOH9rvjaksHZF3-174" value="N" style="resizable=0;html=1;whiteSpace=wrap;align=right;verticalAlign=bottom;" parent="1" connectable="0" vertex="1">
          <mxGeometry x="1179.999393939394" y="862" as="geometry" />
        </mxCell>
        <mxCell id="53vGb1DOH9rvjaksHZF3-175" value="" style="endArrow=none;html=1;rounded=0;exitX=0.448;exitY=1.074;exitDx=0;exitDy=0;exitPerimeter=0;" parent="1" source="53vGb1DOH9rvjaksHZF3-72" edge="1">
          <mxGeometry relative="1" as="geometry">
            <mxPoint x="576" y="865" as="sourcePoint" />
            <mxPoint x="730" y="865" as="targetPoint" />
            <Array as="points">
              <mxPoint x="652" y="865" />
            </Array>
          </mxGeometry>
        </mxCell>
        <mxCell id="53vGb1DOH9rvjaksHZF3-176" value="N" style="resizable=0;html=1;whiteSpace=wrap;align=right;verticalAlign=bottom;" parent="1" connectable="0" vertex="1">
          <mxGeometry x="729.9993939393939" y="865" as="geometry" />
        </mxCell>
        <mxCell id="53vGb1DOH9rvjaksHZF3-177" value="" style="shape=link;html=1;rounded=0;entryX=-0.004;entryY=0.521;entryDx=0;entryDy=0;entryPerimeter=0;" parent="1" target="53vGb1DOH9rvjaksHZF3-166" edge="1">
          <mxGeometry relative="1" as="geometry">
            <mxPoint x="846" y="865" as="sourcePoint" />
            <mxPoint x="1006" y="865" as="targetPoint" />
          </mxGeometry>
        </mxCell>
        <mxCell id="53vGb1DOH9rvjaksHZF3-178" value="N" style="resizable=0;html=1;whiteSpace=wrap;align=right;verticalAlign=bottom;" parent="53vGb1DOH9rvjaksHZF3-177" connectable="0" vertex="1">
          <mxGeometry x="1" relative="1" as="geometry">
            <mxPoint x="-107" y="-3" as="offset" />
          </mxGeometry>
        </mxCell>
        <mxCell id="53vGb1DOH9rvjaksHZF3-179" value="número_actividad" style="ellipse;whiteSpace=wrap;html=1;align=center;" parent="1" vertex="1">
          <mxGeometry x="965" y="640" width="100" height="40" as="geometry" />
        </mxCell>
        <mxCell id="53vGb1DOH9rvjaksHZF3-180" value="" style="endArrow=none;html=1;rounded=0;exitX=0.499;exitY=0.007;exitDx=0;exitDy=0;exitPerimeter=0;entryX=0.01;entryY=0.575;entryDx=0;entryDy=0;entryPerimeter=0;" parent="1" source="53vGb1DOH9rvjaksHZF3-99" edge="1">
          <mxGeometry relative="1" as="geometry">
            <mxPoint x="887" y="715" as="sourcePoint" />
            <mxPoint x="1016" y="680" as="targetPoint" />
          </mxGeometry>
        </mxCell>
        <mxCell id="53vGb1DOH9rvjaksHZF3-200" value="NIÑO" style="whiteSpace=wrap;html=1;align=center;" parent="1" vertex="1">
          <mxGeometry x="958" y="982" width="100" height="40" as="geometry" />
        </mxCell>
        <mxCell id="53vGb1DOH9rvjaksHZF3-211" value="&lt;u&gt;DNI_niño&lt;/u&gt;" style="ellipse;whiteSpace=wrap;html=1;align=center;" parent="1" vertex="1">
          <mxGeometry x="1090" y="920" width="70" height="28" as="geometry" />
        </mxCell>
        <mxCell id="53vGb1DOH9rvjaksHZF3-213" value="nombre" style="ellipse;whiteSpace=wrap;html=1;align=center;" parent="1" vertex="1">
          <mxGeometry x="1162" y="937" width="64" height="30" as="geometry" />
        </mxCell>
        <mxCell id="53vGb1DOH9rvjaksHZF3-214" value="apellidos" style="ellipse;whiteSpace=wrap;html=1;align=center;" parent="1" vertex="1">
          <mxGeometry x="1178" y="973" width="64" height="30" as="geometry" />
        </mxCell>
        <mxCell id="53vGb1DOH9rvjaksHZF3-215" value="dirección" style="ellipse;whiteSpace=wrap;html=1;align=center;" parent="1" vertex="1">
          <mxGeometry x="1198" y="1007" width="64" height="30" as="geometry" />
        </mxCell>
        <mxCell id="53vGb1DOH9rvjaksHZF3-216" value="nacimiento" style="ellipse;whiteSpace=wrap;html=1;align=center;" parent="1" vertex="1">
          <mxGeometry x="1167" y="1041" width="64" height="30" as="geometry" />
        </mxCell>
        <mxCell id="53vGb1DOH9rvjaksHZF3-217" value="&lt;font style=&quot;font-size: 6px;&quot;&gt;nombre_padre/madre&lt;/font&gt;" style="ellipse;whiteSpace=wrap;html=1;align=center;" parent="1" vertex="1">
          <mxGeometry x="1111" y="1069" width="64" height="30" as="geometry" />
        </mxCell>
        <mxCell id="53vGb1DOH9rvjaksHZF3-218" value="teléfono" style="ellipse;whiteSpace=wrap;html=1;align=center;" parent="1" vertex="1">
          <mxGeometry x="1038" y="1080" width="64" height="30" as="geometry" />
        </mxCell>
        <mxCell id="53vGb1DOH9rvjaksHZF3-219" value="email" style="ellipse;whiteSpace=wrap;html=1;align=center;" parent="1" vertex="1">
          <mxGeometry x="965" y="1079" width="64" height="30" as="geometry" />
        </mxCell>
        <mxCell id="53vGb1DOH9rvjaksHZF3-220" value="" style="endArrow=none;html=1;rounded=0;exitX=0.998;exitY=0.962;exitDx=0;exitDy=0;exitPerimeter=0;entryX=0.409;entryY=0;entryDx=0;entryDy=0;entryPerimeter=0;" parent="1" source="53vGb1DOH9rvjaksHZF3-200" edge="1">
          <mxGeometry relative="1" as="geometry">
            <mxPoint x="997" y="1014" as="sourcePoint" />
            <mxPoint x="997" y="1079" as="targetPoint" />
          </mxGeometry>
        </mxCell>
        <mxCell id="53vGb1DOH9rvjaksHZF3-221" value="" style="endArrow=none;html=1;rounded=0;exitX=0.991;exitY=0.981;exitDx=0;exitDy=0;exitPerimeter=0;entryX=0.409;entryY=0;entryDx=0;entryDy=0;entryPerimeter=0;" parent="1" source="53vGb1DOH9rvjaksHZF3-200" edge="1">
          <mxGeometry relative="1" as="geometry">
            <mxPoint x="1124" y="1021" as="sourcePoint" />
            <mxPoint x="1063" y="1080" as="targetPoint" />
          </mxGeometry>
        </mxCell>
        <mxCell id="53vGb1DOH9rvjaksHZF3-222" value="" style="endArrow=none;html=1;rounded=0;entryX=0.409;entryY=0;entryDx=0;entryDy=0;entryPerimeter=0;" parent="1" edge="1">
          <mxGeometry relative="1" as="geometry">
            <mxPoint x="1056" y="1021" as="sourcePoint" />
            <mxPoint x="1119" y="1074" as="targetPoint" />
          </mxGeometry>
        </mxCell>
        <mxCell id="53vGb1DOH9rvjaksHZF3-223" value="" style="endArrow=none;html=1;rounded=0;entryX=0.409;entryY=0;entryDx=0;entryDy=0;entryPerimeter=0;" parent="1" edge="1">
          <mxGeometry relative="1" as="geometry">
            <mxPoint x="1057" y="1021" as="sourcePoint" />
            <mxPoint x="1168" y="1052" as="targetPoint" />
          </mxGeometry>
        </mxCell>
        <mxCell id="53vGb1DOH9rvjaksHZF3-224" value="" style="endArrow=none;html=1;rounded=0;entryX=0.409;entryY=0;entryDx=0;entryDy=0;entryPerimeter=0;exitX=0.998;exitY=0.999;exitDx=0;exitDy=0;exitPerimeter=0;" parent="1" source="53vGb1DOH9rvjaksHZF3-200" edge="1">
          <mxGeometry relative="1" as="geometry">
            <mxPoint x="1086" y="992" as="sourcePoint" />
            <mxPoint x="1197" y="1023" as="targetPoint" />
          </mxGeometry>
        </mxCell>
        <mxCell id="53vGb1DOH9rvjaksHZF3-225" value="" style="endArrow=none;html=1;rounded=0;entryX=0.409;entryY=0;entryDx=0;entryDy=0;entryPerimeter=0;exitX=0.991;exitY=1.018;exitDx=0;exitDy=0;exitPerimeter=0;" parent="1" source="53vGb1DOH9rvjaksHZF3-200" edge="1">
          <mxGeometry relative="1" as="geometry">
            <mxPoint x="1041" y="992" as="sourcePoint" />
            <mxPoint x="1180" y="993" as="targetPoint" />
          </mxGeometry>
        </mxCell>
        <mxCell id="53vGb1DOH9rvjaksHZF3-226" value="" style="endArrow=none;html=1;rounded=0;entryX=0.409;entryY=0;entryDx=0;entryDy=0;entryPerimeter=0;exitX=0.991;exitY=1.018;exitDx=0;exitDy=0;exitPerimeter=0;" parent="1" source="53vGb1DOH9rvjaksHZF3-200" edge="1">
          <mxGeometry relative="1" as="geometry">
            <mxPoint x="1042" y="989" as="sourcePoint" />
            <mxPoint x="1165" y="959" as="targetPoint" />
          </mxGeometry>
        </mxCell>
        <mxCell id="53vGb1DOH9rvjaksHZF3-227" value="" style="endArrow=none;html=1;rounded=0;entryX=0.409;entryY=0;entryDx=0;entryDy=0;entryPerimeter=0;exitX=1.006;exitY=0.999;exitDx=0;exitDy=0;exitPerimeter=0;" parent="1" source="53vGb1DOH9rvjaksHZF3-200" edge="1">
          <mxGeometry relative="1" as="geometry">
            <mxPoint x="1023" y="1012" as="sourcePoint" />
            <mxPoint x="1131" y="948" as="targetPoint" />
          </mxGeometry>
        </mxCell>
        <mxCell id="53vGb1DOH9rvjaksHZF3-232" value="fecha_inicio" style="ellipse;whiteSpace=wrap;html=1;align=center;" parent="1" vertex="1">
          <mxGeometry x="960" y="1274" width="100" height="40" as="geometry" />
        </mxCell>
        <mxCell id="53vGb1DOH9rvjaksHZF3-233" value="" style="endArrow=none;dashed=1;html=1;rounded=0;" parent="1" edge="1">
          <mxGeometry width="50" height="50" relative="1" as="geometry">
            <mxPoint x="1044" y="1302" as="sourcePoint" />
            <mxPoint x="973" y="1302" as="targetPoint" />
          </mxGeometry>
        </mxCell>
        <mxCell id="53vGb1DOH9rvjaksHZF3-234" value="" style="endArrow=none;dashed=1;html=1;rounded=0;" parent="1" edge="1">
          <mxGeometry width="50" height="50" relative="1" as="geometry">
            <mxPoint x="16" y="658" as="sourcePoint" />
            <mxPoint x="-55" y="658" as="targetPoint" />
          </mxGeometry>
        </mxCell>
        <mxCell id="53vGb1DOH9rvjaksHZF3-235" value="fecha_inicio" style="ellipse;whiteSpace=wrap;html=1;align=center;" parent="1" vertex="1">
          <mxGeometry x="508" y="318" width="100" height="40" as="geometry" />
        </mxCell>
        <mxCell id="53vGb1DOH9rvjaksHZF3-236" value="fecha_fin" style="ellipse;whiteSpace=wrap;html=1;align=center;" parent="1" vertex="1">
          <mxGeometry x="634" y="319" width="100" height="40" as="geometry" />
        </mxCell>
        <mxCell id="53vGb1DOH9rvjaksHZF3-238" value="" style="endArrow=none;dashed=1;html=1;rounded=0;" parent="1" edge="1">
          <mxGeometry width="50" height="50" relative="1" as="geometry">
            <mxPoint x="591" y="347" as="sourcePoint" />
            <mxPoint x="520" y="347" as="targetPoint" />
          </mxGeometry>
        </mxCell>
        <mxCell id="53vGb1DOH9rvjaksHZF3-239" value="" style="endArrow=none;html=1;rounded=0;exitX=0.456;exitY=-0.006;exitDx=0;exitDy=0;exitPerimeter=0;" parent="1" source="53vGb1DOH9rvjaksHZF3-50" edge="1">
          <mxGeometry relative="1" as="geometry">
            <mxPoint x="621" y="432" as="sourcePoint" />
            <mxPoint x="569" y="357" as="targetPoint" />
          </mxGeometry>
        </mxCell>
        <mxCell id="53vGb1DOH9rvjaksHZF3-240" value="" style="endArrow=none;html=1;rounded=0;" parent="1" edge="1">
          <mxGeometry relative="1" as="geometry">
            <mxPoint x="615" y="417" as="sourcePoint" />
            <mxPoint x="657" y="356" as="targetPoint" />
          </mxGeometry>
        </mxCell>
        <mxCell id="Bz4WZlxNLolz7cSYnrx3-1" value="" style="endArrow=none;html=1;rounded=0;exitX=0.448;exitY=1.074;exitDx=0;exitDy=0;exitPerimeter=0;" parent="1" edge="1">
          <mxGeometry relative="1" as="geometry">
            <mxPoint x="198" y="599" as="sourcePoint" />
            <mxPoint x="198" y="625" as="targetPoint" />
            <Array as="points">
              <mxPoint x="198" y="625" />
            </Array>
          </mxGeometry>
        </mxCell>
        <mxCell id="Bz4WZlxNLolz7cSYnrx3-2" value="" style="endArrow=none;html=1;rounded=0;exitX=0.491;exitY=0.996;exitDx=0;exitDy=0;exitPerimeter=0;" parent="1" source="53vGb1DOH9rvjaksHZF3-114" edge="1">
          <mxGeometry relative="1" as="geometry">
            <mxPoint x="198" y="665" as="sourcePoint" />
            <mxPoint x="198" y="701" as="targetPoint" />
            <Array as="points">
              <mxPoint x="198" y="701" />
            </Array>
          </mxGeometry>
        </mxCell>
        <mxCell id="Bz4WZlxNLolz7cSYnrx3-3" value="" style="shape=link;html=1;rounded=0;exitX=0.995;exitY=0.377;exitDx=0;exitDy=0;exitPerimeter=0;entryX=-0.009;entryY=0.325;entryDx=0;entryDy=0;entryPerimeter=0;" parent="1" target="53vGb1DOH9rvjaksHZF3-72" edge="1">
          <mxGeometry relative="1" as="geometry">
            <mxPoint x="254" y="731" as="sourcePoint" />
            <mxPoint x="605" y="731" as="targetPoint" />
          </mxGeometry>
        </mxCell>
        <mxCell id="Bz4WZlxNLolz7cSYnrx3-4" value="N" style="resizable=0;html=1;whiteSpace=wrap;align=right;verticalAlign=bottom;" parent="Bz4WZlxNLolz7cSYnrx3-3" connectable="0" vertex="1">
          <mxGeometry x="1" relative="1" as="geometry">
            <mxPoint x="-338" y="-5" as="offset" />
          </mxGeometry>
        </mxCell>
        <mxCell id="Bz4WZlxNLolz7cSYnrx3-5" value="" style="endArrow=none;html=1;rounded=0;entryX=0.547;entryY=0.994;entryDx=0;entryDy=0;entryPerimeter=0;exitX=-0.02;exitY=0.575;exitDx=0;exitDy=0;exitPerimeter=0;" parent="1" source="53vGb1DOH9rvjaksHZF3-114" edge="1">
          <mxGeometry relative="1" as="geometry">
            <mxPoint x="76" y="696" as="sourcePoint" />
            <mxPoint x="90" y="606" as="targetPoint" />
          </mxGeometry>
        </mxCell>
        <mxCell id="Bz4WZlxNLolz7cSYnrx3-6" value="" style="endArrow=none;html=1;rounded=0;entryX=0.547;entryY=0.994;entryDx=0;entryDy=0;entryPerimeter=0;" parent="1" edge="1">
          <mxGeometry relative="1" as="geometry">
            <mxPoint x="148" y="649" as="sourcePoint" />
            <mxPoint x="35" y="649" as="targetPoint" />
          </mxGeometry>
        </mxCell>
        <mxCell id="Bz4WZlxNLolz7cSYnrx3-7" value="" style="endArrow=none;html=1;rounded=0;entryX=0.547;entryY=0.994;entryDx=0;entryDy=0;entryPerimeter=0;exitX=-0.03;exitY=0.6;exitDx=0;exitDy=0;exitPerimeter=0;" parent="1" source="53vGb1DOH9rvjaksHZF3-114" edge="1">
          <mxGeometry relative="1" as="geometry">
            <mxPoint x="190" y="689" as="sourcePoint" />
            <mxPoint x="77" y="689" as="targetPoint" />
          </mxGeometry>
        </mxCell>
        <mxCell id="Bz4WZlxNLolz7cSYnrx3-8" value="&lt;font style=&quot;font-size: 8px;&quot;&gt;MONITORIZADO POR&lt;/font&gt;" style="shape=rhombus;perimeter=rhombusPerimeter;whiteSpace=wrap;html=1;align=center;" parent="1" vertex="1">
          <mxGeometry x="138" y="538" width="120" height="60" as="geometry" />
        </mxCell>
        <mxCell id="W9wcY01fAVpcMfLtV_yd-2" value="precio_niño" style="ellipse;whiteSpace=wrap;html=1;align=center;" vertex="1" parent="1">
          <mxGeometry x="33" y="1186" width="100" height="40" as="geometry" />
        </mxCell>
        <mxCell id="W9wcY01fAVpcMfLtV_yd-3" value="" style="endArrow=none;html=1;rounded=0;exitX=0.022;exitY=0.773;exitDx=0;exitDy=0;exitPerimeter=0;entryX=0.74;entryY=0.047;entryDx=0;entryDy=0;entryPerimeter=0;" edge="1" parent="1" source="53vGb1DOH9rvjaksHZF3-104">
          <mxGeometry relative="1" as="geometry">
            <mxPoint x="188" y="1177" as="sourcePoint" />
            <mxPoint x="132" y="1205" as="targetPoint" />
          </mxGeometry>
        </mxCell>
        <mxCell id="W9wcY01fAVpcMfLtV_yd-4" value="&lt;u&gt;Nombre_excursión&lt;/u&gt;" style="ellipse;whiteSpace=wrap;html=1;align=center;" vertex="1" parent="1">
          <mxGeometry x="860" y="799" width="108" height="46" as="geometry" />
        </mxCell>
        <mxCell id="W9wcY01fAVpcMfLtV_yd-5" value="reseña" style="ellipse;whiteSpace=wrap;html=1;align=center;" vertex="1" parent="1">
          <mxGeometry x="958" y="779" width="60" height="35" as="geometry" />
        </mxCell>
        <mxCell id="W9wcY01fAVpcMfLtV_yd-6" value="lugar" style="ellipse;whiteSpace=wrap;html=1;align=center;" vertex="1" parent="1">
          <mxGeometry x="1025" y="777" width="63" height="33" as="geometry" />
        </mxCell>
        <mxCell id="W9wcY01fAVpcMfLtV_yd-7" value="localidad" style="ellipse;whiteSpace=wrap;html=1;align=center;" vertex="1" parent="1">
          <mxGeometry x="1092" y="777" width="60" height="35" as="geometry" />
        </mxCell>
        <mxCell id="W9wcY01fAVpcMfLtV_yd-8" value="provincia" style="ellipse;whiteSpace=wrap;html=1;align=center;" vertex="1" parent="1">
          <mxGeometry x="1107" y="818" width="63" height="33" as="geometry" />
        </mxCell>
        <mxCell id="W9wcY01fAVpcMfLtV_yd-9" value="" style="endArrow=none;html=1;rounded=0;entryX=0.409;entryY=0;entryDx=0;entryDy=0;entryPerimeter=0;exitX=0.578;exitY=0.017;exitDx=0;exitDy=0;exitPerimeter=0;" edge="1" parent="1" source="53vGb1DOH9rvjaksHZF3-166">
          <mxGeometry relative="1" as="geometry">
            <mxPoint x="1036" y="913" as="sourcePoint" />
            <mxPoint x="1108" y="839" as="targetPoint" />
          </mxGeometry>
        </mxCell>
        <mxCell id="W9wcY01fAVpcMfLtV_yd-10" value="" style="endArrow=none;html=1;rounded=0;entryX=0.409;entryY=0;entryDx=0;entryDy=0;entryPerimeter=0;" edge="1" parent="1">
          <mxGeometry relative="1" as="geometry">
            <mxPoint x="1024" y="878" as="sourcePoint" />
            <mxPoint x="1103" y="808" as="targetPoint" />
          </mxGeometry>
        </mxCell>
        <mxCell id="W9wcY01fAVpcMfLtV_yd-11" value="" style="endArrow=none;html=1;rounded=0;entryX=0.409;entryY=0;entryDx=0;entryDy=0;entryPerimeter=0;exitX=0.594;exitY=0.003;exitDx=0;exitDy=0;exitPerimeter=0;" edge="1" parent="1" source="53vGb1DOH9rvjaksHZF3-166">
          <mxGeometry relative="1" as="geometry">
            <mxPoint x="981" y="880" as="sourcePoint" />
            <mxPoint x="1060" y="810" as="targetPoint" />
          </mxGeometry>
        </mxCell>
        <mxCell id="W9wcY01fAVpcMfLtV_yd-12" value="" style="endArrow=none;html=1;rounded=0;entryX=0.409;entryY=0;entryDx=0;entryDy=0;entryPerimeter=0;exitX=0.605;exitY=-0.01;exitDx=0;exitDy=0;exitPerimeter=0;" edge="1" parent="1" source="53vGb1DOH9rvjaksHZF3-166">
          <mxGeometry relative="1" as="geometry">
            <mxPoint x="966" y="878" as="sourcePoint" />
            <mxPoint x="1002" y="811" as="targetPoint" />
          </mxGeometry>
        </mxCell>
        <mxCell id="W9wcY01fAVpcMfLtV_yd-13" value="" style="endArrow=none;html=1;rounded=0;entryX=0.409;entryY=0;entryDx=0;entryDy=0;entryPerimeter=0;exitX=0.589;exitY=0.003;exitDx=0;exitDy=0;exitPerimeter=0;" edge="1" parent="1" source="53vGb1DOH9rvjaksHZF3-166">
          <mxGeometry relative="1" as="geometry">
            <mxPoint x="988" y="898" as="sourcePoint" />
            <mxPoint x="964" y="832" as="targetPoint" />
          </mxGeometry>
        </mxCell>
        <mxCell id="W9wcY01fAVpcMfLtV_yd-14" value="Inscripción" style="shape=ext;margin=3;double=1;whiteSpace=wrap;html=1;align=center;" vertex="1" parent="1">
          <mxGeometry x="499" y="974" width="100" height="40" as="geometry" />
        </mxCell>
        <mxCell id="W9wcY01fAVpcMfLtV_yd-15" value="" style="shape=rhombus;perimeter=rhombusPerimeter;whiteSpace=wrap;html=1;align=center;" vertex="1" parent="1">
          <mxGeometry x="718" y="965" width="120" height="60" as="geometry" />
        </mxCell>
        <mxCell id="W9wcY01fAVpcMfLtV_yd-16" value="" style="shape=rhombus;perimeter=rhombusPerimeter;whiteSpace=wrap;html=1;align=center;" vertex="1" parent="1">
          <mxGeometry x="489" y="859" width="120" height="60" as="geometry" />
        </mxCell>
        <mxCell id="W9wcY01fAVpcMfLtV_yd-17" value="" style="shape=rhombus;perimeter=rhombusPerimeter;whiteSpace=wrap;html=1;align=center;" vertex="1" parent="1">
          <mxGeometry x="337" y="1054" width="120" height="60" as="geometry" />
        </mxCell>
        <mxCell id="W9wcY01fAVpcMfLtV_yd-18" value="" style="shape=link;html=1;rounded=0;entryX=-0.002;entryY=0.84;entryDx=0;entryDy=0;entryPerimeter=0;" edge="1" parent="1" target="53vGb1DOH9rvjaksHZF3-72">
          <mxGeometry relative="1" as="geometry">
            <mxPoint x="549" y="860" as="sourcePoint" />
            <mxPoint x="549" y="740" as="targetPoint" />
            <Array as="points">
              <mxPoint x="549" y="752" />
            </Array>
          </mxGeometry>
        </mxCell>
        <mxCell id="W9wcY01fAVpcMfLtV_yd-19" value="1" style="resizable=0;html=1;whiteSpace=wrap;align=right;verticalAlign=bottom;" connectable="0" vertex="1" parent="W9wcY01fAVpcMfLtV_yd-18">
          <mxGeometry x="1" relative="1" as="geometry">
            <mxPoint x="-62" y="111" as="offset" />
          </mxGeometry>
        </mxCell>
        <mxCell id="W9wcY01fAVpcMfLtV_yd-22" value="" style="shape=link;html=1;rounded=0;" edge="1" parent="1">
          <mxGeometry relative="1" as="geometry">
            <mxPoint x="549" y="973" as="sourcePoint" />
            <mxPoint x="549" y="918" as="targetPoint" />
          </mxGeometry>
        </mxCell>
        <mxCell id="W9wcY01fAVpcMfLtV_yd-23" value="N" style="resizable=0;html=1;whiteSpace=wrap;align=right;verticalAlign=bottom;" connectable="0" vertex="1" parent="W9wcY01fAVpcMfLtV_yd-22">
          <mxGeometry x="1" relative="1" as="geometry">
            <mxPoint x="-5" y="16" as="offset" />
          </mxGeometry>
        </mxCell>
        <mxCell id="W9wcY01fAVpcMfLtV_yd-24" value="" style="shape=link;html=1;rounded=0;entryX=0.499;entryY=0.994;entryDx=0;entryDy=0;entryPerimeter=0;" edge="1" parent="1" target="W9wcY01fAVpcMfLtV_yd-17">
          <mxGeometry relative="1" as="geometry">
            <mxPoint x="243" y="1173" as="sourcePoint" />
            <mxPoint x="422" y="1128" as="targetPoint" />
            <Array as="points">
              <mxPoint x="243" y="1128" />
              <mxPoint x="397" y="1128" />
            </Array>
          </mxGeometry>
        </mxCell>
        <mxCell id="W9wcY01fAVpcMfLtV_yd-25" value="1" style="resizable=0;html=1;whiteSpace=wrap;align=right;verticalAlign=bottom;" connectable="0" vertex="1" parent="W9wcY01fAVpcMfLtV_yd-24">
          <mxGeometry x="1" relative="1" as="geometry">
            <mxPoint x="-3" y="13" as="offset" />
          </mxGeometry>
        </mxCell>
        <mxCell id="W9wcY01fAVpcMfLtV_yd-26" value="" style="shape=link;html=1;rounded=0;entryX=0;entryY=0.599;entryDx=0;entryDy=0;entryPerimeter=0;" edge="1" parent="1" target="W9wcY01fAVpcMfLtV_yd-14">
          <mxGeometry relative="1" as="geometry">
            <mxPoint x="397" y="1055" as="sourcePoint" />
            <mxPoint x="500" y="998" as="targetPoint" />
            <Array as="points">
              <mxPoint x="397" y="998" />
            </Array>
          </mxGeometry>
        </mxCell>
        <mxCell id="W9wcY01fAVpcMfLtV_yd-27" value="N" style="resizable=0;html=1;whiteSpace=wrap;align=right;verticalAlign=bottom;" connectable="0" vertex="1" parent="W9wcY01fAVpcMfLtV_yd-26">
          <mxGeometry x="1" relative="1" as="geometry">
            <mxPoint x="-107" y="57" as="offset" />
          </mxGeometry>
        </mxCell>
        <mxCell id="W9wcY01fAVpcMfLtV_yd-28" value="" style="shape=link;html=1;rounded=0;exitX=0.999;exitY=0.524;exitDx=0;exitDy=0;exitPerimeter=0;" edge="1" parent="1" source="W9wcY01fAVpcMfLtV_yd-14">
          <mxGeometry relative="1" as="geometry">
            <mxPoint x="562" y="995" as="sourcePoint" />
            <mxPoint x="722" y="995" as="targetPoint" />
          </mxGeometry>
        </mxCell>
        <mxCell id="W9wcY01fAVpcMfLtV_yd-29" value="N" style="resizable=0;html=1;whiteSpace=wrap;align=right;verticalAlign=bottom;" connectable="0" vertex="1" parent="W9wcY01fAVpcMfLtV_yd-28">
          <mxGeometry x="1" relative="1" as="geometry" />
        </mxCell>
        <mxCell id="W9wcY01fAVpcMfLtV_yd-30" value="" style="shape=link;html=1;rounded=0;entryX=-0.004;entryY=0.329;entryDx=0;entryDy=0;entryPerimeter=0;" edge="1" parent="1" target="53vGb1DOH9rvjaksHZF3-200">
          <mxGeometry relative="1" as="geometry">
            <mxPoint x="835" y="995" as="sourcePoint" />
            <mxPoint x="995" y="995" as="targetPoint" />
          </mxGeometry>
        </mxCell>
        <mxCell id="W9wcY01fAVpcMfLtV_yd-31" value="1" style="resizable=0;html=1;whiteSpace=wrap;align=right;verticalAlign=bottom;" connectable="0" vertex="1" parent="W9wcY01fAVpcMfLtV_yd-30">
          <mxGeometry x="1" relative="1" as="geometry">
            <mxPoint x="-111" y="-1" as="offset" />
          </mxGeometry>
        </mxCell>
        <mxCell id="W9wcY01fAVpcMfLtV_yd-32" value="ID_inscripción" style="ellipse;whiteSpace=wrap;html=1;align=center;" vertex="1" parent="1">
          <mxGeometry x="275" y="930" width="108" height="46" as="geometry" />
        </mxCell>
        <mxCell id="W9wcY01fAVpcMfLtV_yd-33" value="fecha_hora" style="ellipse;whiteSpace=wrap;html=1;align=center;" vertex="1" parent="1">
          <mxGeometry x="313" y="881" width="108" height="46" as="geometry" />
        </mxCell>
        <mxCell id="W9wcY01fAVpcMfLtV_yd-34" value="observaciones" style="ellipse;whiteSpace=wrap;html=1;align=center;" vertex="1" parent="1">
          <mxGeometry x="379" y="840" width="108" height="46" as="geometry" />
        </mxCell>
        <mxCell id="W9wcY01fAVpcMfLtV_yd-36" value="" style="endArrow=none;html=1;rounded=0;" edge="1" parent="1">
          <mxGeometry relative="1" as="geometry">
            <mxPoint x="382" y="951" as="sourcePoint" />
            <mxPoint x="498" y="987" as="targetPoint" />
          </mxGeometry>
        </mxCell>
        <mxCell id="W9wcY01fAVpcMfLtV_yd-38" value="" style="endArrow=none;html=1;rounded=0;entryX=-0.033;entryY=0.189;entryDx=0;entryDy=0;entryPerimeter=0;" edge="1" parent="1" target="W9wcY01fAVpcMfLtV_yd-14">
          <mxGeometry relative="1" as="geometry">
            <mxPoint x="404" y="920" as="sourcePoint" />
            <mxPoint x="520" y="956" as="targetPoint" />
          </mxGeometry>
        </mxCell>
        <mxCell id="W9wcY01fAVpcMfLtV_yd-39" value="" style="endArrow=none;html=1;rounded=0;" edge="1" parent="1">
          <mxGeometry relative="1" as="geometry">
            <mxPoint x="440" y="886" as="sourcePoint" />
            <mxPoint x="498" y="982" as="targetPoint" />
          </mxGeometry>
        </mxCell>
        <mxCell id="W9wcY01fAVpcMfLtV_yd-40" value="" style="endArrow=none;dashed=1;html=1;rounded=0;" edge="1" parent="1">
          <mxGeometry width="50" height="50" relative="1" as="geometry">
            <mxPoint x="362" y="961" as="sourcePoint" />
            <mxPoint x="291" y="961" as="targetPoint" />
          </mxGeometry>
        </mxCell>
      </root>
    </mxGraphModel>
  </diagram>
</mxfile>
